<?xml version="1.0" encoding="UTF-8"?>
<!--
Font Awesome Pro 5.0.4 by @fontawesome - http://fontawesome.com
License - http://fontawesome.com/license (Commercial License)
-->
<svg xmlns="http://www.w3.org/2000/svg" style="display: none;">
    <symbol id="twitter" viewBox="0 0 512 512">
        <path fill="#FFFFFF"
              d="m256 0c-141.363281 0-256 114.636719-256 256s114.636719 256 256 256 256-114.636719 256-256-114.636719-256-256-256zm116.886719 199.601562c.113281 2.519532.167969 5.050782.167969 7.59375 0 77.644532-59.101563 167.179688-167.183594 167.183594h.003906-.003906c-33.183594 0-64.0625-9.726562-90.066406-26.394531 4.597656.542969 9.277343.8125 14.015624.8125 27.53125 0 52.867188-9.390625 72.980469-25.152344-25.722656-.476562-47.410156-17.464843-54.894531-40.8125 3.582031.6875 7.265625 1.0625 11.042969 1.0625 5.363281 0 10.558593-.722656 15.496093-2.070312-26.886718-5.382813-47.140624-29.144531-47.140624-57.597657 0-.265624 0-.503906.007812-.75 7.917969 4.402344 16.972656 7.050782 26.613281 7.347657-15.777343-10.527344-26.148437-28.523438-26.148437-48.910157 0-10.765624 2.910156-20.851562 7.957031-29.535156 28.976563 35.554688 72.28125 58.9375 121.117187 61.394532-1.007812-4.304688-1.527343-8.789063-1.527343-13.398438 0-32.4375 26.316406-58.753906 58.765625-58.753906 16.902344 0 32.167968 7.144531 42.890625 18.566406 13.386719-2.640625 25.957031-7.53125 37.3125-14.261719-4.394531 13.714844-13.707031 25.222657-25.839844 32.5 11.886719-1.421875 23.214844-4.574219 33.742187-9.253906-7.863281 11.785156-17.835937 22.136719-29.308593 30.429687zm0 0"></path>
    </symbol>
    <symbol id="facebook" viewBox="0 0 640 640">
        <path fill="#FFFFFF" d="M612,306C612,137.004,474.995,0,306,0C137.004,0,0,137.004,0,306c0,168.995,137.004,306,306,306
		C474.995,612,612,474.995,612,306z M223.825,306v-58.557h35.885V212.03c0-47.764,14.271-82.175,66.569-82.175h62.201v58.418
		h-43.785c-21.949,0-26.929,14.577-26.929,29.849v29.32h67.487L376.046,306h-58.278v176.617H259.71V306H223.825z"></path>
    </symbol>
    <symbol id="instagram" viewBox="0 0 512 512">
        <path fill="#FFFFFF"
              d="m305 256c0 27.0625-21.9375 49-49 49s-49-21.9375-49-49 21.9375-49 49-49 49 21.9375 49 49zm0 0"/>
        <path fill="#FFFFFF"
              d="m370.59375 169.304688c-2.355469-6.382813-6.113281-12.160157-10.996094-16.902344-4.742187-4.882813-10.515625-8.640625-16.902344-10.996094-5.179687-2.011719-12.960937-4.40625-27.292968-5.058594-15.503906-.707031-20.152344-.859375-59.402344-.859375-39.253906 0-43.902344.148438-59.402344.855469-14.332031.65625-22.117187 3.050781-27.292968 5.0625-6.386719 2.355469-12.164063 6.113281-16.902344 10.996094-4.882813 4.742187-8.640625 10.515625-11 16.902344-2.011719 5.179687-4.40625 12.964843-5.058594 27.296874-.707031 15.5-.859375 20.148438-.859375 59.402344 0 39.25.152344 43.898438.859375 59.402344.652344 14.332031 3.046875 22.113281 5.058594 27.292969 2.359375 6.386719 6.113281 12.160156 10.996094 16.902343 4.742187 4.882813 10.515624 8.640626 16.902343 10.996094 5.179688 2.015625 12.964844 4.410156 27.296875 5.0625 15.5.707032 20.144532.855469 59.398438.855469 39.257812 0 43.90625-.148437 59.402344-.855469 14.332031-.652344 22.117187-3.046875 27.296874-5.0625 12.820313-4.945312 22.953126-15.078125 27.898438-27.898437 2.011719-5.179688 4.40625-12.960938 5.0625-27.292969.707031-15.503906.855469-20.152344.855469-59.402344 0-39.253906-.148438-43.902344-.855469-59.402344-.652344-14.332031-3.046875-22.117187-5.0625-27.296874zm-114.59375 162.179687c-41.691406 0-75.488281-33.792969-75.488281-75.484375s33.796875-75.484375 75.488281-75.484375c41.6875 0 75.484375 33.792969 75.484375 75.484375s-33.796875 75.484375-75.484375 75.484375zm78.46875-136.3125c-9.742188 0-17.640625-7.898437-17.640625-17.640625s7.898437-17.640625 17.640625-17.640625 17.640625 7.898437 17.640625 17.640625c-.003906 9.742188-7.898437 17.640625-17.640625 17.640625zm0 0"/>
        <path fill="#FFFFFF"
              d="m256 0c-141.363281 0-256 114.636719-256 256s114.636719 256 256 256 256-114.636719 256-256-114.636719-256-256-256zm146.113281 316.605469c-.710937 15.648437-3.199219 26.332031-6.832031 35.683593-7.636719 19.746094-23.246094 35.355469-42.992188 42.992188-9.347656 3.632812-20.035156 6.117188-35.679687 6.832031-15.675781.714844-20.683594.886719-60.605469.886719-39.925781 0-44.929687-.171875-60.609375-.886719-15.644531-.714843-26.332031-3.199219-35.679687-6.832031-9.8125-3.691406-18.695313-9.476562-26.039063-16.957031-7.476562-7.339844-13.261719-16.226563-16.953125-26.035157-3.632812-9.347656-6.121094-20.035156-6.832031-35.679687-.722656-15.679687-.890625-20.6875-.890625-60.609375s.167969-44.929688.886719-60.605469c.710937-15.648437 3.195312-26.332031 6.828125-35.683593 3.691406-9.808594 9.480468-18.695313 16.960937-26.035157 7.339844-7.480469 16.226563-13.265625 26.035157-16.957031 9.351562-3.632812 20.035156-6.117188 35.683593-6.832031 15.675781-.714844 20.683594-.886719 60.605469-.886719s44.929688.171875 60.605469.890625c15.648437.710937 26.332031 3.195313 35.683593 6.824219 9.808594 3.691406 18.695313 9.480468 26.039063 16.960937 7.476563 7.34375 13.265625 16.226563 16.953125 26.035157 3.636719 9.351562 6.121094 20.035156 6.835938 35.683593.714843 15.675781.882812 20.683594.882812 60.605469s-.167969 44.929688-.886719 60.605469zm0 0"/>
    </symbol>
    <symbol id="linkedin" viewBox="0 0 512 512">
        <path fill="#FFFFFF"
              d="m256 0c-141.363281 0-256 114.636719-256 256s114.636719 256 256 256 256-114.636719 256-256-114.636719-256-256-256zm-74.390625 387h-62.347656v-187.574219h62.347656zm-31.171875-213.1875h-.40625c-20.921875 0-34.453125-14.402344-34.453125-32.402344 0-18.40625 13.945313-32.410156 35.273437-32.410156 21.328126 0 34.453126 14.003906 34.859376 32.410156 0 18-13.53125 32.402344-35.273438 32.402344zm255.984375 213.1875h-62.339844v-100.347656c0-25.21875-9.027343-42.417969-31.585937-42.417969-17.222656 0-27.480469 11.601563-31.988282 22.800781-1.648437 4.007813-2.050781 9.609375-2.050781 15.214844v104.75h-62.34375s.816407-169.976562 0-187.574219h62.34375v26.558594c8.285157-12.78125 23.109375-30.960937 56.1875-30.960937 41.019531 0 71.777344 26.808593 71.777344 84.421874zm0 0"/>
    </symbol>
    <symbol id="youtube" viewBox="0 0 512 512">
        <path fill="#FFFFFF" d="m224.113281 303.960938 83.273438-47.960938-83.273438-47.960938zm0 0"/>
        <path fill="#FFFFFF"
              d="m256 0c-141.363281 0-256 114.636719-256 256s114.636719 256 256 256 256-114.636719 256-256-114.636719-256-256-256zm159.960938 256.261719s0 51.917969-6.585938 76.953125c-3.691406 13.703125-14.496094 24.507812-28.199219 28.195312-25.035156 6.589844-125.175781 6.589844-125.175781 6.589844s-99.878906 0-125.175781-6.851562c-13.703125-3.6875-24.507813-14.496094-28.199219-28.199219-6.589844-24.769531-6.589844-76.949219-6.589844-76.949219s0-51.914062 6.589844-76.949219c3.6875-13.703125 14.757812-24.773437 28.199219-28.460937 25.035156-6.589844 125.175781-6.589844 125.175781-6.589844s100.140625 0 125.175781 6.851562c13.703125 3.6875 24.507813 14.496094 28.199219 28.199219 6.851562 25.035157 6.585938 77.210938 6.585938 77.210938zm0 0"/>
    </symbol>
    <symbol id="search" viewBox="0 0 512 512">
        <path fill="#000000"
              d="M12.7002,2.3858 C9.8522,-0.4622 5.2342,-0.4622 2.3872,2.3858 C-0.4618,5.2348 -0.4618,9.8518 2.3872,12.6998 C5.2342,15.5478 9.8522,15.5478 12.7002,12.6998 C15.5492,9.8518 15.5492,5.2348 12.7002,2.3858 Z"/>
        <path fill="black" d="M12.8916,12.5088 L19.0026,18.6208"/>
    </symbol>
    <symbol id="naturalstone">
        <path d="M11.144,0.843c-0.89,0.052 -1.275,0.258 -1.337,0.957c-0.089,0.89 -0.121,1.785 -0.098,2.679l0,6.428l-0.514,0l-6.773,-8.336l-0.031,0l0,4.001c-0.014,0.896 0.018,1.792 0.098,2.685c0.077,0.812 0.447,1.028 1.543,1.069l0,0.448l-3.795,0l0,-0.448c0.925,-0.046 1.326,-0.257 1.403,-1.028c0.08,-0.906 0.112,-1.816 0.098,-2.726l0,-3.528c0,-1.162 -0.031,-1.229 -0.319,-1.609c-0.288,-0.381 -0.668,-0.525 -1.419,-0.592l0,-0.442l2.36,0l6.65,8.002l0.046,0l0,-3.924c0.014,-0.882 -0.023,-1.765 -0.113,-2.643c-0.077,-0.72 -0.458,-0.926 -1.543,-0.993l0,-0.442l3.759,0l-0.015,0.442Z"/>
        <path d="M18.256,10.763l0,-0.447c1.029,-0.129 1.147,-0.257 0.941,-0.874c-0.205,-0.617 -0.514,-1.486 -0.879,-2.458l-3.404,0c-0.258,0.72 -0.515,1.388 -0.705,2.057c-0.35,1.028 -0.206,1.162 0.992,1.275l0,0.447l-3.45,0l0,-0.447c1.003,-0.144 1.224,-0.237 1.784,-1.64l3.302,-8.373l0.514,-0.144c0.987,2.741 2.057,5.77 3.086,8.547c0.514,1.373 0.72,1.517 1.753,1.61l0,0.447l-3.934,0Zm-1.543,-8.531l-0.051,0c-0.514,1.373 -1.029,2.761 -1.502,4.068l2.937,0l-1.384,-4.068Z"
        />
        <path d="M30.881,2.87c-0.077,-0.503 -0.251,-0.985 -0.514,-1.42c-0.257,-0.38 -0.514,-0.514 -1.723,-0.514l-1.131,0l0,7.868c0,1.255 0.128,1.419 1.64,1.512l0,0.447l-4.571,0l0,-0.447c1.45,-0.093 1.578,-0.257 1.578,-1.512l0,-7.847l-0.961,0c-1.322,0 -1.641,0.128 -1.852,0.514c-0.241,0.445 -0.414,0.923 -0.514,1.419l-0.463,0c0.083,-0.956 0.16,-1.99 0.191,-2.869l0.318,0c0.227,0.365 0.432,0.401 0.88,0.401l6.279,0c0.331,0.031 0.651,-0.135 0.818,-0.422l0.334,0c0,0.735 0.077,1.898 0.159,2.823l-0.468,0.047Z"
        />
        <path d="M43.666,0.843c-0.957,0.067 -1.322,0.288 -1.404,0.941c-0.046,0.432 -0.077,1.116 -0.077,2.572l0,1.321c0,1.883 -0.288,3.235 -1.214,4.207c-0.762,0.739 -1.793,1.137 -2.854,1.101c-0.917,0.035 -1.821,-0.233 -2.571,-0.762c-0.957,-0.735 -1.404,-1.933 -1.404,-3.795l0,-3.975c0,-1.435 -0.124,-1.496 -1.384,-1.61l0,-0.442l4.114,0l0,0.442c-1.26,0.083 -1.388,0.175 -1.388,1.61l0,3.636c0,2.571 1.028,4.037 2.998,4.037c2.294,0 3.014,-1.913 3.014,-4.546l0,-1.209c0.021,-0.879 -0.017,-1.759 -0.114,-2.633c-0.092,-0.622 -0.432,-0.812 -1.542,-0.895l0,-0.442l3.795,0l0.031,0.442Z"
        />
        <path d="M54.511,10.892c-0.19,0 -0.365,0 -0.555,0c-1.056,0.017 -2.042,-0.541 -2.571,-1.455c-0.556,-0.782 -1.132,-1.769 -1.61,-2.572c-0.272,-0.442 -0.514,-0.637 -1.373,-0.637l-0.514,0l0,2.535c0,1.358 0.144,1.455 1.419,1.543l0,0.447l-4.222,0l0,-0.447c1.306,-0.093 1.45,-0.191 1.45,-1.543l0,-6.403c0,-1.357 -0.128,-1.403 -1.373,-1.517l0,-0.442l3.955,0c1.167,0 1.944,0.139 2.571,0.54c0.682,0.469 1.072,1.261 1.029,2.088c0,1.373 -0.844,2.216 -2.026,2.726c0.272,0.514 0.941,1.594 1.419,2.314c0.388,0.583 0.82,1.137 1.291,1.656c0.296,0.361 0.697,0.623 1.146,0.75l-0.036,0.417Zm-5.888,-5.184c0.614,0.059 1.229,-0.099 1.738,-0.447c0.605,-0.469 0.936,-1.212 0.88,-1.975c0,-1.723 -1.137,-2.36 -2.345,-2.36c-0.298,-0.032 -0.598,0.023 -0.864,0.159c-0.108,0.077 -0.175,0.268 -0.175,0.699l0,3.924l0.766,0Z"
        />
        <path d="M61.793,10.763l0,-0.447c1.029,-0.129 1.147,-0.257 0.941,-0.874c-0.205,-0.617 -0.514,-1.486 -0.879,-2.458l-3.394,0c-0.257,0.72 -0.514,1.388 -0.705,2.057c-0.349,1.028 -0.205,1.162 0.993,1.275l0,0.447l-3.461,0l0,-0.447c1.003,-0.144 1.224,-0.237 1.784,-1.64l3.302,-8.373l0.514,-0.144c0.988,2.741 2.057,5.77 3.086,8.547c0.514,1.373 0.72,1.517 1.753,1.61l0,0.447l-3.934,0Zm-1.542,-8.531l-0.031,0c-0.515,1.373 -1.029,2.761 -1.502,4.068l2.937,0l-1.404,-4.068Z"
        />
        <path d="M74.866,8.259c-0.098,0.514 -0.432,2.011 -0.576,2.504l-7.2,0l0,-0.447c1.337,-0.093 1.466,-0.206 1.466,-1.543l0,-6.397c0,-1.358 -0.113,-1.435 -1.404,-1.543l0,-0.432l4.16,0l0,0.442c-1.26,0.098 -1.404,0.175 -1.404,1.543l0,6.29c0,0.858 0.083,1.177 0.371,1.337c0.492,0.184 1.019,0.256 1.542,0.21c0.88,0 1.42,-0.082 1.79,-0.514c0.364,-0.46 0.639,-0.983 0.813,-1.543l0.442,0.093Z"
        />
        <path d="M85.768,2.823c-0.288,-1.028 -0.699,-2.124 -2.088,-2.124c-0.033,-0.002 -0.066,-0.003 -0.1,-0.003c-0.917,0 -1.671,0.755 -1.671,1.672c0,0.028 0.001,0.057 0.002,0.085c0,1.167 0.761,1.707 2.021,2.36c1.26,0.654 2.762,1.389 2.762,3.173c0,1.677 -1.42,3.014 -3.538,3.014c-0.523,-0.005 -1.043,-0.084 -1.543,-0.237c-0.269,-0.092 -0.53,-0.203 -0.782,-0.334c-0.196,-0.814 -0.34,-1.641 -0.432,-2.473l0.463,-0.114c0.257,0.978 0.972,2.572 2.613,2.572c0.04,0.003 0.081,0.004 0.122,0.004c0.974,0 1.775,-0.801 1.775,-1.774c0,-0.043 -0.002,-0.085 -0.005,-0.128c0,-1.183 -0.874,-1.738 -2.057,-2.376c-1.029,-0.545 -2.628,-1.342 -2.628,-3.142c0,-1.543 1.229,-2.839 3.286,-2.839c0.684,0.018 1.36,0.141 2.006,0.366c0.067,0.576 0.144,1.198 0.272,2.201l-0.478,0.097Z"
        />
        <path d="M96.593,2.87c-0.077,-0.503 -0.251,-0.985 -0.514,-1.42c-0.257,-0.38 -0.514,-0.514 -1.723,-0.514l-1.131,0l0,7.868c0,1.255 0.128,1.419 1.64,1.512l0,0.447l-4.577,0l0,-0.447c1.451,-0.093 1.579,-0.257 1.579,-1.512l0,-7.847l-0.987,0c-1.322,0 -1.641,0.128 -1.851,0.514c-0.242,0.445 -0.415,0.923 -0.515,1.419l-0.463,0c0.083,-0.956 0.16,-1.99 0.191,-2.869l0.319,0c0.226,0.365 0.432,0.401 0.879,0.401l6.3,0c0.332,0.033 0.655,-0.133 0.822,-0.422l0.335,0c0,0.735 0.077,1.898 0.159,2.823l-0.463,0.047Z"
        />
        <path d="M109.023,5.451c0,3.446 -2.407,5.549 -5.323,5.549c-0.014,0 -0.029,0 -0.043,0c-2.822,0 -5.143,-2.321 -5.143,-5.142c0,-0.055 0.001,-0.11 0.003,-0.165c0.02,-2.87 2.031,-5.534 5.363,-5.534c0.001,0 0.002,0 0.002,0c2.822,0 5.143,2.322 5.143,5.143c0,0.05 -0.001,0.099 -0.002,0.149l0,0Zm-8.881,-0.206c0,2.999 1.645,5.184 3.893,5.184c1.769,0 3.363,-1.486 3.363,-4.546c0,-3.363 -1.754,-5.142 -3.842,-5.142c-1.769,-0.006 -3.394,1.522 -3.394,4.504l-0.02,0Z"
        />
        <path d="M121.576,0.843c-0.895,0.052 -1.275,0.258 -1.342,0.957c-0.083,0.89 -0.114,1.785 -0.093,2.679l0,6.428l-0.514,0l-6.773,-8.336l-0.031,0l0,4.001c0,1.471 0.047,2.232 0.093,2.695c0.082,0.812 0.447,1.028 1.543,1.07l0,0.447l-3.79,0l0,-0.447c0.925,-0.047 1.321,-0.258 1.403,-1.029c0.047,-0.514 0.098,-1.255 0.098,-2.725l0,-3.539c0,-1.162 -0.036,-1.229 -0.319,-1.609c-0.283,-0.381 -0.673,-0.514 -1.419,-0.592l0,-0.442l2.355,0l6.65,8.002l0.051,0l0,-3.924c0.011,-0.882 -0.026,-1.765 -0.113,-2.643c-0.082,-0.72 -0.463,-0.926 -1.543,-0.993l0,-0.442l3.765,0l-0.021,0.442Z"
        />
        <path d="M131.172,8.228c-0.098,0.514 -0.417,2.026 -0.56,2.52l-7.704,0l0,-0.447c1.45,-0.114 1.579,-0.237 1.579,-1.543l0,-6.32c0,-1.435 -0.129,-1.481 -1.373,-1.595l0,-0.442l7.112,0c0,0.396 0.082,1.481 0.128,2.294l-0.462,0.077c-0.09,-0.483 -0.264,-0.946 -0.515,-1.368c-0.226,-0.334 -0.653,-0.447 -1.805,-0.447l-1.208,0c-0.515,0 -0.515,0.03 -0.515,0.514l0,3.6l1.497,0c1.435,0 1.512,-0.129 1.723,-1.193l0.463,0l0,3.059l-0.453,0c-0.211,-1.146 -0.319,-1.244 -1.707,-1.244l-1.512,0l0,3.049c0,0.751 0.092,1.085 0.38,1.291c0.528,0.199 1.095,0.271 1.656,0.211c1.214,0 1.661,-0.129 2.011,-0.545c0.351,-0.446 0.616,-0.954 0.782,-1.497l0.483,0.026Z"
        />
    </symbol>
    <symbol id="sensa">
        <path d="M5.34.36C6,.67,6.38.6,6.39.15h.29l.23,3-.28,0a4.71,4.71,0,0,0-.88-2,2.33,2.33,0,0,0-2-.86A2.19,2.19,0,0,0,2.32.86a1.29,1.29,0,0,0-.46.73,1.81,1.81,0,0,0,0,.91,1.35,1.35,0,0,0,.4.71,5.76,5.76,0,0,0,1.88.94,14.34,14.34,0,0,1,2,.85A3.47,3.47,0,0,1,7.3,6.1a3,3,0,0,1,.36,1.69,3.42,3.42,0,0,1-1.13,2.4,3.78,3.78,0,0,1-2.87.93,4.65,4.65,0,0,1-2.07-.64,3.58,3.58,0,0,0-.64-.31.42.42,0,0,0-.44.11A1,1,0,0,0,.27,11H0V7.64H.27A4.38,4.38,0,0,0,1.35,9.75a3.29,3.29,0,0,0,2.27.93,2.78,2.78,0,0,0,1.79-.45A1.59,1.59,0,0,0,6,9.42a2.17,2.17,0,0,0,.12-1,1.7,1.7,0,0,0-.33-.84A2.87,2.87,0,0,0,5,7a9.67,9.67,0,0,0-1.34-.61c-.53-.2-.92-.37-1.17-.51Q.22,4.7.21,2.94A2.72,2.72,0,0,1,1.08.87,3.81,3.81,0,0,1,3.68,0,4.11,4.11,0,0,1,5.34.36Z"/>
        <path d="M20.39.12l.17,2.58-.29,0A2.26,2.26,0,0,0,17.68.45H15V5h1.38a1.42,1.42,0,0,0,1.59-1.62h.29V7h-.29c0-1.1-.53-1.65-1.59-1.65H15V8.86q0,1.82,2.44,1.82,3.42,0,3.58-2.82l.27,0L21.07,11H11.71v-.3a1.21,1.21,0,0,0,1.36-1.35V1.79A1.19,1.19,0,0,0,11.71.42V.12Z"/>
        <path d="M29,.12a1.35,1.35,0,0,0,.37.71q1.49,2.21,4.94,6.79V1.79A1.21,1.21,0,0,0,33,.42V.12h3V.44a1.18,1.18,0,0,0-1.34,1.35V11h-.57L26.92,1.31v8a1.21,1.21,0,0,0,1.35,1.38V11h-3v-.29a1.2,1.2,0,0,0,1.33-1.37V1.79A1.2,1.2,0,0,0,25.23.42V.12Z"/>
        <path d="M45.55.36c.69.31,1,.24,1.05-.21h.29l.23,3-.27,0a4.76,4.76,0,0,0-.88-2,2.33,2.33,0,0,0-2-.86,2.19,2.19,0,0,0-1.43.49,1.27,1.27,0,0,0-.45.73,1.79,1.79,0,0,0,0,.91,1.38,1.38,0,0,0,.4.71,5.77,5.77,0,0,0,1.89.94,14.57,14.57,0,0,1,2,.85,3.48,3.48,0,0,1,1.19,1.1,3,3,0,0,1,.36,1.69,3.43,3.43,0,0,1-1.13,2.4,3.79,3.79,0,0,1-2.87.93,4.64,4.64,0,0,1-2.07-.64,3.45,3.45,0,0,0-.64-.31.42.42,0,0,0-.44.11,1,1,0,0,0-.23.68h-.27V7.64h.27a4.35,4.35,0,0,0,1.08,2.11,3.29,3.29,0,0,0,2.27.93,2.78,2.78,0,0,0,1.79-.45,1.62,1.62,0,0,0,.61-.8,2.22,2.22,0,0,0,.12-1A1.68,1.68,0,0,0,46,7.6,2.9,2.9,0,0,0,45.21,7a9.74,9.74,0,0,0-1.35-.61c-.52-.2-.91-.37-1.17-.51q-2.26-1.14-2.27-2.9A2.71,2.71,0,0,1,41.29.87,3.82,3.82,0,0,1,43.89,0,4.13,4.13,0,0,1,45.55.36Z"/>
        <path d="M60.57,9.47,56.7.15h-.51L52.65,9.47A1.59,1.59,0,0,1,51,10.64V11h2.74v-.33q-1.26,0-.79-1.17s1.59-4.13,2.67-7l1.84,4.57H54.93l-.12.31h2.83l.84,2.08c.32.79.05,1.18-.79,1.17V11h4.45v-.33A1.69,1.69,0,0,1,60.57,9.47Z"/>
    </symbol>
    <symbol id="dekton">
        <path d="M41.26,10.37a1,1,0,0,0,2,0V2h2.7a.9.9,0,0,0,0-1.8H38.57a.9.9,0,0,0,0,1.8h2.69ZM4.13.2H1a1,1,0,0,0-1,1v9.1a1,1,0,0,0,1,1H4.13A5.53,5.53,0,0,0,10,5.73v0C10,2.58,7.6.2,4.13.2M8,5.75A3.61,3.61,0,0,1,4.13,9.49H1.94V2H4.13A3.63,3.63,0,0,1,8,5.73Zm18.22,4.62a1,1,0,0,0,1.95,0V8.08l1.8-1.74,3.56,4.53a1,1,0,0,0,.82.46,1,1,0,0,0,1-.95,1.1,1.1,0,0,0-.27-.7L31.3,5.06l3.45-3.32A1,1,0,0,0,35.09,1a.89.89,0,0,0-.9-.9,1,1,0,0,0-.81.36L28.13,5.75V1.08a1,1,0,0,0-1.95,0ZM54.85,0a5.67,5.67,0,0,0-5.79,5.73v0a5.78,5.78,0,0,0,11.57,0v0A5.62,5.62,0,0,0,54.85,0m3.73,5.75a3.72,3.72,0,0,1-3.73,3.88,3.77,3.77,0,0,1-3.76-3.91v0a3.74,3.74,0,0,1,3.73-3.91,3.79,3.79,0,0,1,3.75,3.94Zm5.86,4.63a1,1,0,0,0,1.92,0v-7L72,10.74a1.25,1.25,0,0,0,1,.58h.07a1,1,0,0,0,.95-1V1.07a1,1,0,0,0-1.91,0V7.86L66.64.71a1.22,1.22,0,0,0-1-.58h-.21a1,1,0,0,0-1,1ZM20.92,5.72A.87.87,0,0,0,20,4.85H17.54a.87.87,0,1,0,0,1.74H20a.87.87,0,0,0,.87-.87m-5,3.79h5.54a.87.87,0,0,1,0,1.74H14.93a1,1,0,0,1-1-1V1.17a1,1,0,0,1,1-1h6.44a.87.87,0,0,1,.86.87.86.86,0,0,1-.86.86H15.91Z"/>
    </symbol>
    <symbol id="silestone">
        <polygon
                points="30.1 9.52 30.1 11.49 24.05 11.49 24.05 0.2 29.94 0.2 29.39 2.18 26.27 2.18 26.27 4.75 29.39 4.75 29.39 6.69 26.27 6.69 26.27 9.52 30.1 9.52"/>
        <path d="M4.81,5.1c1.33.62,2.27,1.47,2.27,3A3.51,3.51,0,0,1,3.34,11.7,7.45,7.45,0,0,1,0,11L.72,9a5.71,5.71,0,0,0,2.46.72c1.11,0,1.69-.42,1.69-1.27,0-.67-.44-1-1.24-1.35L2.1,6.33A3.06,3.06,0,0,1,0,3.29C0,1.17,1.83,0,3.79,0A6.77,6.77,0,0,1,6.71.66L6,2.58A5.19,5.19,0,0,0,3.89,2c-1,0-1.7.37-1.7,1.2,0,.6.41.88,1,1.17Z"/>
        <rect x="9.89" y="0.2" width="2.24" height="11.29"/>
        <polygon points="21.81 9.52 21.81 11.49 15.65 11.49 15.65 0.2 17.89 0.2 17.89 9.52 21.81 9.52"/>
        <path d="M37.12,5.1c1.33.62,2.27,1.47,2.27,3a3.51,3.51,0,0,1-3.73,3.64A7.43,7.43,0,0,1,32.32,11L33,9a5.72,5.72,0,0,0,2.46.72c1.11,0,1.7-.42,1.7-1.27,0-.67-.45-1-1.26-1.35l-1.53-.73a3.07,3.07,0,0,1-2.06-3C32.34,1.17,34.14,0,36.1,0A6.8,6.8,0,0,1,39,.66l-.75,1.92A5.09,5.09,0,0,0,36.21,2c-1,0-1.7.37-1.7,1.2,0,.6.4.88,1,1.17Z"/>
        <polygon
                points="48.89 0.2 48.89 2.19 45.94 2.19 45.94 11.5 43.7 11.5 43.7 2.19 40.77 2.19 40.77 0.2 48.89 0.2"/>
        <path d="M55.18,0c3.89,0,5.14,2.92,5.14,5.84S59,11.7,55.18,11.7,50,8.75,50,5.84,51.35,0,55.18,0m0,9.72C57,9.72,58,8.25,58,5.84S57.1,2,55.18,2s-2.8,1.47-2.8,3.87.92,3.88,2.8,3.88"/>
        <polygon
                points="65.24 4.19 65.31 11.5 63.24 11.5 63.24 0.2 65.23 0.2 69.58 7.41 69.5 0.2 71.58 0.2 71.58 11.34 69.74 11.7 65.24 4.19"/>
        <polygon
                points="81.14 9.52 81.14 11.49 75.1 11.49 75.1 0.2 80.98 0.2 80.42 2.18 77.32 2.18 77.32 4.75 80.42 4.75 80.42 6.69 77.32 6.69 77.32 9.52 81.14 9.52"/>
    </symbol>
</svg>


